<svg width="106" height="31" viewBox="0 0 106 31" fill="none" xmlns="http://www.w3.org/2000/svg">
<path id="Vector" fill-rule="evenodd" clip-rule="evenodd" d="M6.37802 0.471027C6.68102 0.388027 7.00102 0.438025 7.30102 0.508025C7.75102 0.621025 8.21702 0.743024 8.58702 1.03802C8.77602 1.18602 8.94602 1.40302 8.92702 1.65602C8.92601 5.96702 8.92702 10.28 8.92702 14.593C8.91502 16.007 9.00401 17.435 8.74401 18.833C8.54701 19.968 8.10702 21.1 7.29402 21.937C7.02602 22.24 6.72201 22.514 6.36502 22.707C6.06501 22.867 5.73602 23.011 5.38802 22.984C5.30902 22.899 5.24002 22.797 5.25702 22.674C5.28202 22.338 5.40702 22.021 5.51702 21.705C5.84702 20.629 5.93901 19.498 5.97701 18.379C6.00601 13.125 6.01602 7.87003 6.04202 2.61503C6.04401 2.47903 6.03201 2.34303 6.01101 2.20903C5.81001 2.21803 5.68302 2.38402 5.54702 2.51002C4.91302 3.12702 4.38902 3.85703 4.01702 4.66003C3.52902 5.68403 3.28001 6.80702 3.17801 7.93302C3.09001 8.66502 3.15001 9.41103 3.32401 10.126C3.47101 10.678 3.69302 11.22 4.05202 11.669C4.20602 11.849 4.25802 12.128 4.12802 12.334C3.93702 12.531 3.63802 12.427 3.41302 12.356C2.65602 12.086 2.00502 11.565 1.50702 10.942C0.910015 10.187 0.657015 9.21303 0.640015 8.26503C0.697015 7.42502 0.925016 6.60502 1.22802 5.82202C1.67002 4.66502 2.32702 3.58802 3.16702 2.67602C3.71202 2.10502 4.31502 1.58903 4.96802 1.14603C5.41002 0.867026 5.87101 0.604027 6.38001 0.471027M34.87 0.681026C35.117 0.471026 35.467 0.501027 35.767 0.539027C36.306 0.627027 36.842 0.761026 37.344 0.979026C37.499 1.04203 37.634 1.14603 37.755 1.26103C37.707 2.43603 37.66 3.61302 37.597 4.78802C38.782 4.84202 39.965 4.90803 41.149 4.97703C41.355 4.98603 41.631 5.04503 41.665 5.29003C41.712 5.65303 41.657 6.04203 41.487 6.36903C41.385 6.54003 41.241 6.74903 41.016 6.73503C39.866 6.75403 38.717 6.79103 37.567 6.80702C37.504 8.45902 37.46 10.113 37.402 11.765C37.372 13.272 37.233 14.784 37.394 16.289C37.466 16.873 37.542 17.479 37.825 18.005C37.941 18.233 38.152 18.43 38.415 18.462C38.756 18.494 39.093 18.353 39.348 18.133C39.753 17.785 40.033 17.32 40.272 16.849C40.552 16.307 40.754 15.729 40.938 15.149C41.006 14.893 40.952 14.626 40.977 14.366C40.992 12.984 41.211 11.599 41.684 10.298C42.041 9.35503 42.545 8.42603 43.343 7.78403C44.212 7.05803 45.487 6.81602 46.541 7.26002C47.223 7.52502 47.775 8.06203 48.116 8.70203C48.16 8.39903 48.09 8.06803 48.226 7.78503C48.418 7.47603 48.824 7.46203 49.148 7.49003C49.581 7.54003 50.018 7.64702 50.4 7.86302C50.633 7.99502 50.866 8.21003 50.875 8.49703C50.8 11.018 50.696 13.541 50.775 16.064C50.798 16.611 50.875 17.157 50.994 17.692C51.093 18.077 51.218 18.496 51.539 18.756C51.841 18.99 52.276 18.914 52.561 18.689C53.022 18.33 53.287 17.791 53.521 17.269C53.581 17.119 53.669 16.966 53.637 16.799C53.464 15.287 53.432 13.748 53.677 12.242C53.851 11.23 54.154 10.227 54.677 9.33803C55.206 8.43103 55.975 7.64103 56.932 7.18803C57.117 7.11203 57.301 7.01403 57.504 6.99903C58.447 6.99103 59.424 7.30403 60.095 7.98703C60.269 8.17503 60.415 8.38703 60.55 8.60503C60.611 8.32203 60.548 8.02103 60.648 7.74703C60.8 7.42803 61.209 7.40903 61.515 7.45003C62.028 7.53403 62.552 7.64503 63.01 7.90303C63.292 8.07003 63.292 8.43103 63.278 8.71903C63.252 11.56 63.211 14.402 63.191 17.244C63.836 16.334 64.426 15.383 64.931 14.389C65.551 13.182 66.076 11.912 66.34 10.576C65.987 10.257 65.662 9.86602 65.559 9.39102C65.467 9.00303 65.554 8.60303 65.661 8.22903C65.831 7.66403 66.252 7.14303 66.835 6.97903C67.279 6.85403 67.787 6.84303 68.202 7.06603C68.518 7.23403 68.697 7.57803 68.747 7.92103C68.806 8.26903 68.753 8.62302 68.687 8.96603C69.447 8.84603 70.207 8.72203 70.954 8.53403C71.467 8.41703 72.017 8.32503 72.53 8.48703C72.896 8.59503 73.165 8.92603 73.251 9.29103C73.343 9.68003 73.374 10.103 73.224 10.482C73.023 10.985 72.977 11.528 72.864 12.054C72.622 13.448 72.31 14.874 72.543 16.29C72.629 16.922 72.759 17.555 73.006 18.145C73.159 18.457 73.354 18.801 73.708 18.912C74.057 19.005 74.413 18.826 74.682 18.613C75.125 18.215 75.418 17.657 75.552 17.082C75.252 15.595 75.182 14.054 75.421 12.553C75.593 11.426 75.916 10.314 76.461 9.31003C76.888 8.55103 77.486 7.85203 78.283 7.46903C79.168 7.03303 80.265 7.03303 81.129 7.52203C81.664 7.79903 82.072 8.26503 82.378 8.77603C82.425 8.47003 82.347 8.12903 82.511 7.85103C82.756 7.54803 83.198 7.56603 83.548 7.61603C84.061 7.70703 84.624 7.83103 84.983 8.24103C85.215 8.49803 85.102 8.86103 85.105 9.17103C85.063 10.828 84.993 12.483 84.998 14.14C85.008 15.405 84.958 16.694 85.296 17.926C85.394 18.242 85.522 18.577 85.798 18.78C86.105 19.003 86.544 18.955 86.838 18.732C87.241 18.427 87.511 17.989 87.744 17.549C87.928 17.155 88.153 16.769 88.253 16.344C88.259 13.558 88.275 10.77 88.279 7.98403C88.26 7.74703 88.346 7.47303 88.581 7.37303C88.751 7.26703 88.953 7.34503 89.136 7.36603C89.627 7.45803 90.148 7.47303 90.603 7.70503C90.773 7.78903 90.953 7.93902 90.939 8.14802C90.935 9.52502 90.941 10.902 90.936 12.279C90.934 12.438 90.936 12.598 90.952 12.757C91.359 11.501 91.785 10.25 92.27 9.02103C92.461 8.56703 92.659 8.11203 92.908 7.68703C93.096 7.34503 93.532 7.28803 93.884 7.31103C94.633 7.36703 95.426 7.69003 95.822 8.36103C95.964 8.60503 96.027 8.89002 96.027 9.17002C96.013 10.603 96.094 12.034 96.196 13.461C96.229 13.905 96.235 14.352 96.306 14.792C96.354 14.758 96.382 14.714 96.39 14.657C96.538 13.599 96.802 12.563 97.101 11.538C97.437 10.404 97.806 9.27803 98.276 8.19203C98.396 7.92103 98.515 7.61303 98.794 7.46603C99.192 7.24703 99.676 7.31502 100.094 7.44002C100.567 7.60302 101.057 7.77003 101.442 8.10503C101.72 8.34103 101.945 8.68003 101.957 9.05503C101.84 11.272 101.732 13.499 101.897 15.717C101.944 16.328 102.017 16.939 102.172 17.533C102.263 17.868 102.378 18.206 102.589 18.487C102.789 18.755 103.169 18.895 103.487 18.766C103.77 18.657 103.959 18.396 104.1 18.139C104.432 17.523 104.527 16.822 104.715 16.156C104.761 15.954 104.853 15.733 105.068 15.663C105.221 15.566 105.38 15.686 105.502 15.776C105.659 15.922 105.612 16.152 105.615 16.343C105.572 17.413 105.402 18.533 104.774 19.429C104.275 20.171 103.373 20.649 102.472 20.544C101.646 20.505 100.876 20.03 100.434 19.337C99.868 18.482 99.643 17.459 99.493 16.459C99.23 14.468 99.298 12.454 99.348 10.452C99.266 10.506 99.212 10.587 99.173 10.674C98.612 11.79 98.234 12.989 97.936 14.2C97.544 15.771 97.301 17.38 97.247 18.999C97.253 19.208 97.09 19.366 96.898 19.412C96.453 19.592 95.927 19.631 95.488 19.416C95.039 19.207 94.713 18.801 94.512 18.358C94.297 17.901 94.214 17.397 94.142 16.901C93.877 14.843 93.787 12.767 93.684 10.696C93.698 10.547 93.528 10.643 93.451 10.657C92.442 12.413 91.93 14.407 91.671 16.402C91.51 17.562 91.457 18.735 91.441 19.905C91.439 20.116 91.323 20.32 91.138 20.423C90.792 20.62 90.374 20.611 89.99 20.581C89.532 20.534 89.047 20.495 88.658 20.225C88.493 20.117 88.384 19.933 88.376 19.735C88.348 19.354 88.34 18.972 88.309 18.592C88.099 18.898 87.926 19.23 87.675 19.507C87.276 19.979 86.759 20.379 86.148 20.525C85.287 20.721 84.323 20.438 83.727 19.78C83.238 19.253 82.975 18.557 82.849 17.859C82.415 18.802 81.713 19.645 80.782 20.127C80.33 20.372 79.826 20.509 79.315 20.56C78.755 20.627 78.169 20.56 77.663 20.301C76.918 19.923 76.362 19.241 76.025 18.488C75.63 19.375 74.95 20.228 73.976 20.487C73.014 20.752 71.978 20.36 71.289 19.673C70.41 18.813 69.948 17.603 69.811 16.398C69.735 15.815 69.761 15.226 69.802 14.641C69.89 13.333 70.032 12.019 70.373 10.75C70.378 10.68 70.378 10.61 70.375 10.54C69.674 10.506 68.971 10.531 68.27 10.55C67.923 11.742 67.408 12.877 66.828 13.972C65.831 15.846 64.608 17.594 63.236 19.211C63.252 20.768 63.301 22.326 63.225 23.882C63.149 25.116 62.964 26.366 62.449 27.501C62.057 28.346 61.442 29.114 60.61 29.557C59.99 29.9 59.285 30.083 58.58 30.127C57.702 30.065 56.791 29.846 56.105 29.265C55.622 28.869 55.291 28.298 55.166 27.688C55.075 27.156 55.047 26.597 55.221 26.079C55.532 25.105 56.156 24.269 56.827 23.513C57.507 22.743 58.292 22.077 59.033 21.368C59.627 20.812 60.225 20.259 60.821 19.706C60.831 19.275 60.764 18.842 60.751 18.411C60.475 18.769 60.23 19.155 59.885 19.452C59.026 20.286 57.786 20.715 56.597 20.56C55.772 20.414 55.097 19.842 54.602 19.194C54.414 18.957 54.248 18.704 54.103 18.44C53.666 19.306 53.034 20.19 52.066 20.493C51.1 20.766 50.007 20.371 49.373 19.608C48.956 19.096 48.687 18.466 48.599 17.814C48.193 18.687 47.572 19.478 46.742 19.982C46.21 20.313 45.596 20.503 44.972 20.553C44.295 20.635 43.591 20.472 43.029 20.083C42.017 19.372 41.52 18.171 41.222 17.013C41.066 17.529 40.81 18.007 40.547 18.475C40.279 18.893 39.997 19.308 39.635 19.651C39.211 20.065 38.679 20.398 38.083 20.477C37.397 20.565 36.676 20.357 36.149 19.907C35.722 19.543 35.403 19.066 35.173 18.557C34.74 17.627 34.575 16.6 34.491 15.586C33.956 16.765 33.325 17.931 32.39 18.844C31.674 19.576 30.766 20.134 29.766 20.376C28.977 20.579 28.154 20.558 27.349 20.485C26.654 20.415 25.948 20.279 25.333 19.933C25.037 19.756 24.735 19.515 24.646 19.167C24.589 18.784 24.807 18.437 25.018 18.137C25.224 17.862 25.455 17.571 25.788 17.448C26.099 17.347 26.367 17.599 26.609 17.755C26.985 18.085 27.409 18.384 27.906 18.491C28.391 18.617 28.97 18.458 29.257 18.03C29.52 17.632 29.593 17.141 29.62 16.674C29.614 15.791 29.048 15.04 28.452 14.44C27.893 13.905 27.308 13.398 26.731 12.883C25.91 14.281 25.029 15.643 24.199 17.035C23.702 17.928 23.102 18.775 22.342 19.463C21.791 19.952 21.133 20.374 20.39 20.474C19.891 20.549 19.387 20.301 19.082 19.912C18.683 19.406 18.513 18.766 18.416 18.14C18.265 17.019 18.321 15.885 18.339 14.757C18.358 13.323 18.433 11.89 18.481 10.457C18.489 10.149 18.527 9.84202 18.495 9.53603C18.398 9.55702 18.285 9.56002 18.224 9.64902C16.851 11.194 15.995 13.115 15.332 15.051C14.768 16.747 14.362 18.493 14.1 20.259C13.878 20.44 13.583 20.491 13.307 20.443C12.972 20.394 12.629 20.44 12.298 20.37C12.001 20.292 11.793 20.032 11.676 19.761C11.434 19.201 11.404 18.578 11.411 17.976C11.439 14.585 11.46 11.193 11.486 7.80202C11.479 7.63802 11.524 7.43203 11.699 7.37403C12.05 7.26203 12.423 7.35802 12.772 7.43302C13.164 7.53602 13.591 7.63503 13.885 7.93503C14.035 8.07703 13.972 8.29902 13.983 8.48202C13.975 10.364 13.948 12.246 13.958 14.127C14.575 12.46 15.184 10.768 16.146 9.26002C16.361 8.95002 16.566 8.63003 16.83 8.35803C17.287 7.82503 17.916 7.35802 18.644 7.34302C19.191 7.32102 19.691 7.57603 20.17 7.80702C20.612 8.03202 21.043 8.35602 21.225 8.83502C21.343 9.11602 21.297 9.42703 21.291 9.72203C21.243 11.341 21.195 12.959 21.139 14.577C21.128 15.238 21.076 15.897 21.115 16.558C21.133 16.873 21.169 17.19 21.279 17.488C21.347 17.653 21.444 17.845 21.64 17.876C21.826 17.897 21.978 17.763 22.112 17.652C22.41 17.38 22.653 17.054 22.891 16.732C23.569 15.789 24.151 14.781 24.732 13.777C25.072 13.155 25.427 12.541 25.743 11.906C25.632 11.721 25.462 11.573 25.364 11.377C24.99 10.772 24.885 10.011 25.082 9.32802C25.261 8.66002 25.68 8.06703 26.229 7.65203C26.618 7.37703 27.07 7.19802 27.537 7.10602C27.982 6.99202 28.475 7.05702 28.868 7.29502C29.14 7.46102 29.279 7.78003 29.289 8.09003C29.314 8.67403 29.098 9.23603 28.824 9.74103C28.559 10.242 28.214 10.695 27.852 11.129C29.011 11.975 30.216 12.782 31.218 13.819C31.743 14.373 32.178 15.054 32.267 15.827C32.329 16.226 32.274 16.628 32.214 17.023C33.306 16.072 34.152 14.769 34.372 13.321C34.4 11.11 34.394 8.89803 34.418 6.68703C33.407 6.66803 32.394 6.66703 31.383 6.63903C31.183 6.52003 31.143 6.26402 31.132 6.05202C31.135 5.54402 31.274 5.01403 31.622 4.63003C31.675 4.54903 31.777 4.57503 31.86 4.56903C32.761 4.58003 33.662 4.59203 34.564 4.60503C34.607 3.58103 34.631 2.55703 34.669 1.53303C34.677 1.23903 34.667 0.910027 34.87 0.672027M45.901 9.20803C45.309 9.32603 44.868 9.80302 44.591 10.315C44.222 11.008 44.048 11.785 43.936 12.557C43.799 13.562 43.756 14.581 43.81 15.594C43.866 16.374 43.971 17.174 44.331 17.879C44.532 18.263 44.839 18.618 45.258 18.766C45.533 18.874 45.854 18.863 46.115 18.722C46.651 18.446 47.015 17.934 47.285 17.41C47.761 16.443 47.964 15.368 48.07 14.303C48.156 13.194 48.188 12.061 47.92 10.974C47.778 10.457 47.561 9.93603 47.16 9.56603C46.829 9.25503 46.347 9.10303 45.902 9.20903M58.493 9.24803C57.781 9.44203 57.289 10.06 56.969 10.692C56.505 11.677 56.316 12.767 56.235 13.845C56.182 15.056 56.17 16.301 56.544 17.468C56.732 18.02 57.052 18.584 57.605 18.836C57.949 19.001 58.369 18.963 58.691 18.763C58.965 18.585 59.202 18.352 59.391 18.086C59.833 17.484 60.093 16.771 60.272 16.052C60.533 14.983 60.621 13.877 60.614 12.778C60.605 12.027 60.538 11.266 60.302 10.549C60.148 10.111 59.913 9.67203 59.523 9.40103C59.228 9.19203 58.836 9.14103 58.493 9.24803ZM80.338 9.34003C79.718 9.43803 79.244 9.92203 78.963 10.457C78.459 11.411 78.307 12.502 78.211 13.564C78.133 14.757 78.1 15.976 78.381 17.147C78.523 17.718 78.76 18.301 79.226 18.684C79.529 18.928 79.955 19.065 80.334 18.925C80.83 18.758 81.176 18.333 81.454 17.91C82.089 16.858 82.324 15.621 82.442 14.414C82.531 13.315 82.556 12.19 82.286 11.113C82.15 10.584 81.919 10.051 81.499 9.68603C81.19 9.40603 80.751 9.26003 80.338 9.34003ZM59.986 22.592C58.89 23.674 57.875 24.888 57.266 26.317C57.047 26.827 56.93 27.403 57.087 27.947C57.193 28.37 57.529 28.73 57.954 28.839C58.483 28.978 59.086 28.978 59.563 28.68C59.993 28.395 60.275 27.936 60.446 27.456C60.77 26.536 60.834 25.552 60.88 24.584C60.894 23.639 60.921 22.693 60.927 21.748C60.583 21.993 60.298 22.309 59.986 22.592Z" fill="white"/>
</svg>
